<svg xmlns="http://www.w3.org/2000/svg" xmlns:cc="http://web.resource.org/cc/" xmlns:svg="http://www.w3.org/2000/svg" xmlns:xlink="http://www.w3.org/1999/xlink" id="svg4908" width="48" height="48" version="1.0"><defs id="defs4910"><linearGradient id="linearGradient5966"><stop style="stop-color:#b992b5;stop-opacity:1" id="stop5968" offset="0"/><stop style="stop-color:#9f6a9a;stop-opacity:1" id="stop5970" offset="1"/></linearGradient><linearGradient id="linearGradient5950"><stop style="stop-color:#fff;stop-opacity:1" id="stop5952" offset="0"/><stop style="stop-color:#fff;stop-opacity:0" id="stop5954" offset="1"/></linearGradient><linearGradient id="linearGradient6016"><stop style="stop-color:#2e3436;stop-opacity:1" id="stop6018" offset="0"/><stop style="stop-color:#2e3436;stop-opacity:0" id="stop6020" offset="1"/></linearGradient><linearGradient id="linearGradient6006"><stop style="stop-color:#000;stop-opacity:1" id="stop6008" offset="0"/><stop style="stop-color:#000;stop-opacity:0" id="stop6010" offset="1"/></linearGradient><linearGradient id="linearGradient5996"><stop style="stop-color:#fbfbfb;stop-opacity:1" id="stop5998" offset="0"/><stop style="stop-color:#eeeeeb;stop-opacity:1" id="stop6000" offset="1"/></linearGradient><linearGradient id="linearGradient5904"><stop style="stop-color:#458805;stop-opacity:1" id="stop5906" offset="0"/><stop style="stop-color:#4e9a06;stop-opacity:0" id="stop5908" offset="1"/></linearGradient><linearGradient id="linearGradient4927"><stop style="stop-color:#73d216;stop-opacity:1" id="stop4929" offset="0"/><stop style="stop-color:#73d216;stop-opacity:0" id="stop4931" offset="1"/></linearGradient><linearGradient id="linearGradient4933" x1="6.025" x2="8.261" y1="1.37" y2=".727" gradientTransform="matrix(3.03218,0,0,2.9952924,0.9505637,-0.1814891)" gradientUnits="userSpaceOnUse" xlink:href="#linearGradient4927"/><linearGradient id="linearGradient5910" x1="6.696" x2="8.298" y1="1.908" y2="1.205" gradientTransform="matrix(3.03218,0,0,2.9952924,0.9505637,-0.1814891)" gradientUnits="userSpaceOnUse" xlink:href="#linearGradient5904"/><linearGradient id="linearGradient6012" x1="7.625" x2="11.621" y1="7.262" y2="11.846" gradientUnits="userSpaceOnUse" xlink:href="#linearGradient6006"/><radialGradient id="radialGradient6022" cx="10.028" cy="20.279" r="9.723" fx="10.028" fy="20.279" gradientTransform="matrix(0.9258714,-1.5361435e-2,1.5723917e-3,0.1459351,0.7114489,16.780677)" gradientUnits="userSpaceOnUse" xlink:href="#linearGradient6016"/><radialGradient id="radialGradient5922" cx="-2.565" cy="9.094" r="11.403" fx="-2.565" fy="9.094" gradientTransform="matrix(0.8152377,-6.055326e-3,7.9368419e-3,1.0746812,-0.5349737,-0.7056208)" gradientUnits="userSpaceOnUse" xlink:href="#linearGradient5996"/><linearGradient id="linearGradient5956" x1="16.756" x2="21.209" y1="8.725" y2="5.455" gradientUnits="userSpaceOnUse" xlink:href="#linearGradient5950"/><radialGradient id="radialGradient5972" cx="5.68" cy="7.616" r="6.226" fx="5.68" fy="7.616" gradientTransform="matrix(1.0682627,1.0526238e-2,-1.0659674e-2,1.0794878,-0.3065591,-0.6651907)" gradientUnits="userSpaceOnUse" xlink:href="#linearGradient5966"/></defs><metadata id="metadata4913"/><g id="layer1"><path style="opacity:.64673911;fill:url(#radialGradient6022);fill-opacity:1;stroke:none;stroke-width:1;stroke-linecap:round;stroke-linejoin:round;stroke-miterlimit:0;stroke-dasharray:none;stroke-dashoffset:0;stroke-opacity:1" id="path6014" d="M 20.01996 19.436737 A 9.7227182 1.7235727 0 1 1 0.57452393,19.436737 A 9.7227182 1.7235727 0 1 1 20.01996 19.436737 z" transform="matrix(2.2627417,0,0,2.0306654,0.7000007,5.0304895)"/><path style="opacity:1;fill:url(#radialGradient5972);fill-opacity:1;stroke:#4d2c55;stroke-width:.28314096;stroke-linecap:butt;stroke-linejoin:miter;stroke-miterlimit:0;stroke-dasharray:none;stroke-dashoffset:0;stroke-opacity:1" id="path4916" d="M 12.933053 9.5971832 A 6.084269 6.084269 0 1 1 0.7645154,9.5971832 A 6.084269 6.084269 0 1 1 12.933053 9.5971832 z" transform="matrix(3.5299171,0,0,3.5337031,-0.198676,-8.9135956)"/><path style="opacity:1;fill:url(#radialGradient5922);fill-opacity:1;stroke:#5c3566;stroke-width:.62410647;stroke-linecap:round;stroke-linejoin:round;stroke-miterlimit:0;stroke-dasharray:none;stroke-dashoffset:0;stroke-opacity:1" id="path4945" d="M 5.5 6.5 A 10.90625 10.9375 0 1 1 -16.3125,6.5 A 10.90625 10.9375 0 1 1 5.5 6.5 z" transform="matrix(1.6045845,0,0,1.6,32.674785,14.6)"/><path style="opacity:1;fill:none;fill-opacity:1;stroke:#2e3436;stroke-width:1.62818301;stroke-linecap:butt;stroke-linejoin:round;stroke-miterlimit:0;stroke-dasharray:none;stroke-dashoffset:0;stroke-opacity:1" id="path5928" d="M 9.4927335 9.1034336 A 1.7520146 1.5131035 0 1 1 5.9887042,9.1034336 A 1.7520146 1.5131035 0 1 1 9.4927335 9.1034336 z" transform="matrix(1.1415429,0,0,1.3217865,14.163638,11.967205)"/><path style="opacity:.25;fill:none;fill-opacity:1;stroke:#fff;stroke-width:.29679355;stroke-linecap:butt;stroke-linejoin:miter;stroke-miterlimit:0;stroke-dasharray:none;stroke-dashoffset:0;stroke-opacity:1" id="path5992" d="M 12.933053 9.5971832 A 6.084269 6.084269 0 1 1 0.7645154,9.5971832 A 6.084269 6.084269 0 1 1 12.933053 9.5971832 z" transform="matrix(3.3693448,0,0,3.3693448,0.924084,-7.3362191)"/><path style="opacity:.10869565;fill:none;fill-opacity:1;stroke:url(#linearGradient6012);stroke-width:.38598743;stroke-linecap:round;stroke-linejoin:round;stroke-miterlimit:0;stroke-dasharray:none;stroke-dashoffset:0;stroke-opacity:1" id="path6004" d="M 17.40625 10.8125 A 6.65625 6.09375 0 1 1 4.09375,10.8125 A 6.65625 6.09375 0 1 1 17.40625 10.8125 z" transform="matrix(2.4788732,0,0,2.7076923,-2.6478875,-4.2769229)"/><path style="fill:url(#linearGradient4933);fill-opacity:1;fill-rule:evenodd;stroke:url(#linearGradient5910);stroke-width:1px;stroke-linecap:butt;stroke-linejoin:round;stroke-opacity:1" id="path4918" d="M 25.018493,1.3161571 C 14.115498,1.3987432 9.7239262,7.4474539 9.4509765,13.523835 L 4.3555149,13.523835 L 13.846363,24.484903 L 25.540108,13.523835 L 19.517955,13.525336 C 19.478332,7.6279619 26.070772,4.4262012 30.609072,4.1242437 C 41.134632,3.4239214 37.522736,9.5756093 37.677469,12.829313 C 38.139813,8.6313525 34.411046,1.2450118 25.018493,1.3161571 z"/><path style="fill:none;fill-rule:evenodd;stroke:#2e3436;stroke-width:2.00000024;stroke-linecap:round;stroke-linejoin:miter;stroke-miterlimit:4;stroke-dasharray:none;stroke-opacity:1" id="path5930" d="M 34.125145,24.016319 L 26.230176,24.016319"/><path style="fill:none;fill-rule:evenodd;stroke:#2e3436;stroke-width:1px;stroke-linecap:round;stroke-linejoin:miter;stroke-opacity:1" id="path5932" d="M 21.125001,25.9375 L 14.5,32.5"/><path style="opacity:.33152173;fill:none;fill-rule:evenodd;stroke:url(#linearGradient5956);stroke-width:1.00000012px;stroke-linecap:butt;stroke-linejoin:miter;stroke-opacity:1" id="path5970" d="M 26.984892,3.5726096 C 16.626821,0.41218618 10.191885,7.79254 10.329532,14.48294 L 6.5263507,14.575863 L 13.876831,23.117301 L 22.730183,14.661392 L 18.32422,14.573311 C 18.255397,11.104214 20.548439,5.8330994 26.984892,3.5726096 z"/></g></svg>