<svg xmlns="http://www.w3.org/2000/svg" xmlns:cc="http://web.resource.org/cc/" xmlns:svg="http://www.w3.org/2000/svg" xmlns:xlink="http://www.w3.org/1999/xlink" id="svg4908" width="16" height="16"><defs id="defs4910"><linearGradient id="linearGradient5904"><stop style="stop-color:#458805;stop-opacity:1" id="stop5906" offset="0"/><stop style="stop-color:#4e9a06;stop-opacity:0" id="stop5908" offset="1"/></linearGradient><linearGradient id="linearGradient4927"><stop style="stop-color:#73d216;stop-opacity:1" id="stop4929" offset="0"/><stop style="stop-color:#73d216;stop-opacity:0" id="stop4931" offset="1"/></linearGradient><linearGradient id="linearGradient4933" x1="6.025" x2="9.106" y1="1.37" y2=".255" gradientUnits="userSpaceOnUse" xlink:href="#linearGradient4927"/><linearGradient id="linearGradient5910" x1="6.39" x2="9.143" y1="2.97" y2=".851" gradientUnits="userSpaceOnUse" xlink:href="#linearGradient5904"/></defs><metadata id="metadata4913"/><g id="layer1"><path style="opacity:1;fill:#ad7fa8;fill-opacity:1;stroke:#5c3566;stroke-width:.86918122;stroke-linecap:butt;stroke-linejoin:miter;stroke-miterlimit:0;stroke-dasharray:none;stroke-dashoffset:0;stroke-opacity:1" id="path4916" d="M 12.933053 9.5971832 A 6.084269 6.084269 0 1 1 0.7645154,9.5971832 A 6.084269 6.084269 0 1 1 12.933053 9.5971832 z" transform="matrix(1.150508,0,0,1.150508,-0.3795811,-2.5416358)"/><path style="opacity:1;fill:#eeeeec;fill-opacity:1;stroke:none;stroke-width:1;stroke-linecap:butt;stroke-linejoin:round;stroke-miterlimit:0;stroke-dasharray:none;stroke-dashoffset:0;stroke-opacity:1" id="path5924" d="M 12.104828 7.6540394 A 4.8419313 4.364109 0 1 1 2.4209657,7.6540394 A 4.8419313 4.364109 0 1 1 12.104828 7.6540394 z" transform="matrix(1.1359104,0,0,1.2602801,-0.75,-1.1462338)"/><path style="fill:url(#linearGradient4933);fill-rule:evenodd;stroke:url(#linearGradient5910);stroke-width:1px;stroke-linecap:butt;stroke-linejoin:round;stroke-opacity:1;fill-opacity:1" id="path4918" d="M 7.9375,0.5 C 4.341739,0.52757196 2.6537273,2.4713564 2.5637096,4.5 L 0.51078627,4.5 L 4.6352818,8.4985437 L 8.5759283,4.5 L 6.5175395,4.5318548 C 6.5044722,2.5629742 8.2845376,1.5383107 9.78125,1.4375 C 13.252534,1.2036924 12.061346,3.2574778 12.112376,4.34375 C 12.264856,2.9422308 11.035124,0.47624769 7.9375,0.5 z"/><path style="opacity:1;fill:none;fill-opacity:1;stroke:#2e3436;stroke-width:1.62818289;stroke-linecap:butt;stroke-linejoin:round;stroke-miterlimit:0;stroke-dasharray:none;stroke-dashoffset:0;stroke-opacity:1" id="path5928" d="M 9.4927335 9.1034336 A 1.7520146 1.5131035 0 1 1 5.9887042,9.1034336 A 1.7520146 1.5131035 0 1 1 9.4927335 9.1034336 z" transform="matrix(0.5707715,0,0,0.6608932,3.0818184,2.4836025)"/><path style="fill:none;fill-rule:evenodd;stroke:#2e3436;stroke-width:1px;stroke-linecap:butt;stroke-linejoin:miter;stroke-opacity:1" id="path5930" d="M 12.070581,8.5 L 8.6161048,8.5"/><path style="fill:none;fill-rule:evenodd;stroke:#2e3436;stroke-width:1px;stroke-linecap:butt;stroke-linejoin:miter;stroke-opacity:1" id="path5932" d="M 6.5205592,9.447586 L 4.5,11.5"/><path style="fill:none;fill-rule:evenodd;stroke:#fff;stroke-width:1px;stroke-linecap:butt;stroke-linejoin:miter;stroke-opacity:1;opacity:.33152174" id="path5970" d="M 7.28125,1.3125 C 4.6666667,1.875 3.4895833,3.1875 3.53125,5.4375 L 2.9375,5.46875 L 4.6875,7.125 L 6.1875,5.5 L 5.53125,5.46875 C 5.5104167,4.3020833 5.5520833,2.1354167 7.28125,1.3125 z"/></g></svg>