<svg xmlns="http://www.w3.org/2000/svg" xmlns:cc="http://web.resource.org/cc/" xmlns:svg="http://www.w3.org/2000/svg" xmlns:xlink="http://www.w3.org/1999/xlink" id="svg4908" width="22" height="22" version="1.0"><defs id="defs4910"><linearGradient id="linearGradient6016"><stop style="stop-color:#2e3436;stop-opacity:1" id="stop6018" offset="0"/><stop style="stop-color:#2e3436;stop-opacity:0" id="stop6020" offset="1"/></linearGradient><linearGradient id="linearGradient6006"><stop style="stop-color:#000;stop-opacity:1" id="stop6008" offset="0"/><stop style="stop-color:#000;stop-opacity:0" id="stop6010" offset="1"/></linearGradient><linearGradient id="linearGradient5996"><stop style="stop-color:#f8f8f8;stop-opacity:1" id="stop5998" offset="0"/><stop style="stop-color:#e3e3df;stop-opacity:1" id="stop6000" offset="1"/></linearGradient><linearGradient id="linearGradient5904"><stop style="stop-color:#458805;stop-opacity:1" id="stop5906" offset="0"/><stop style="stop-color:#4e9a06;stop-opacity:0" id="stop5908" offset="1"/></linearGradient><linearGradient id="linearGradient4927"><stop style="stop-color:#73d216;stop-opacity:1" id="stop4929" offset="0"/><stop style="stop-color:#73d216;stop-opacity:0" id="stop4931" offset="1"/></linearGradient><linearGradient id="linearGradient4933" x1="6.025" x2="9.106" y1="1.37" y2=".255" gradientTransform="matrix(1.4113566,0,0,1.409528,-0.2056783,-0.2046942)" gradientUnits="userSpaceOnUse" xlink:href="#linearGradient4927"/><linearGradient id="linearGradient5910" x1="6.39" x2="9.143" y1="2.97" y2=".851" gradientTransform="matrix(1.4113566,0,0,1.409528,-0.2056783,-0.2046942)" gradientUnits="userSpaceOnUse" xlink:href="#linearGradient5904"/><radialGradient id="radialGradient6002" cx="7.644" cy="9.234" r="4.842" fx="7.644" fy="9.234" gradientTransform="matrix(1.1433172,-5.5272048e-4,5.1252719e-4,0.8640061,-0.3464548,1.1361432)" gradientUnits="userSpaceOnUse" xlink:href="#linearGradient5996"/><linearGradient id="linearGradient6012" x1="7.625" x2="11.621" y1="7.262" y2="11.846" gradientUnits="userSpaceOnUse" xlink:href="#linearGradient6006"/><radialGradient id="radialGradient6022" cx="10.028" cy="20.279" r="9.723" fx="10.028" fy="20.279" gradientTransform="matrix(0.9258714,-1.5361435e-2,1.5723917e-3,0.1459351,0.7114489,16.780677)" gradientUnits="userSpaceOnUse" xlink:href="#linearGradient6016"/></defs><metadata id="metadata4913"/><g id="layer1"><path style="opacity:.64673913;fill:url(#radialGradient6022);fill-opacity:1;stroke:none;stroke-width:1;stroke-linecap:round;stroke-linejoin:round;stroke-miterlimit:0;stroke-dasharray:none;stroke-dashoffset:0;stroke-opacity:1" id="path6014" d="M 20.01996 19.436737 A 9.7227182 1.7235727 0 1 1 0.57452393,19.436737 A 9.7227182 1.7235727 0 1 1 20.01996 19.436737 z" transform="matrix(1.0799449,0,0,0.8702852,-0.6204542,3.5844948)"/><path style="opacity:1;fill:#ad7fa8;fill-opacity:1;stroke:#4d2c55;stroke-width:.60842687;stroke-linecap:butt;stroke-linejoin:miter;stroke-miterlimit:0;stroke-dasharray:none;stroke-dashoffset:0;stroke-opacity:1" id="path4916" d="M 12.933053 9.5971832 A 6.084269 6.084269 0 1 1 0.7645154,9.5971832 A 6.084269 6.084269 0 1 1 12.933053 9.5971832 z" transform="matrix(1.6435828,0,0,1.6435828,-0.7565444,-4.2737655)"/><path style="opacity:1;fill:url(#radialGradient6002);fill-opacity:1;stroke:#000;stroke-width:.61339743;stroke-linecap:butt;stroke-linejoin:round;stroke-miterlimit:0;stroke-dasharray:none;stroke-dashoffset:0;stroke-opacity:0" id="path5924" d="M 12.104828 7.6540394 A 4.8419313 4.364109 0 1 1 2.4209657,7.6540394 A 4.8419313 4.364109 0 1 1 12.104828 7.6540394 z" transform="matrix(1.5489687,0,0,1.7158268,-0.7499999,-1.6210609)"/><path style="opacity:1;fill:none;fill-opacity:1;stroke:#2e3436;stroke-width:1.62818277;stroke-linecap:butt;stroke-linejoin:round;stroke-miterlimit:0;stroke-dasharray:none;stroke-dashoffset:0;stroke-opacity:1" id="path5928" d="M 9.4927335 9.1034336 A 1.7520146 1.5131035 0 1 1 5.9887042,9.1034336 A 1.7520146 1.5131035 0 1 1 9.4927335 9.1034336 z" transform="matrix(0.5707715,0,0,0.6608934,6.0818183,5.4836007)"/><path style="opacity:.25;fill:none;fill-opacity:1;stroke:#fff;stroke-width:.67602986;stroke-linecap:butt;stroke-linejoin:miter;stroke-miterlimit:0;stroke-dasharray:none;stroke-dashoffset:0;stroke-opacity:1" id="path5992" d="M 12.933053 9.5971832 A 6.084269 6.084269 0 1 1 0.7645154,9.5971832 A 6.084269 6.084269 0 1 1 12.933053 9.5971832 z" transform="matrix(1.4792246,0,0,1.4792245,0.36911,-2.6963888)"/><path style="opacity:.10869565;fill:none;fill-opacity:1;stroke:url(#linearGradient6012);stroke-width:.90982753;stroke-linecap:round;stroke-linejoin:round;stroke-miterlimit:0;stroke-dasharray:none;stroke-dashoffset:0;stroke-opacity:1" id="path6004" d="M 17.40625 10.8125 A 6.65625 6.09375 0 1 1 4.09375,10.8125 A 6.65625 6.09375 0 1 1 17.40625 10.8125 z" transform="matrix(1.0516432,0,0,1.148718,-0.8051645,-0.9205129)"/><path style="fill:url(#linearGradient4933);fill-opacity:1;fill-rule:evenodd;stroke:url(#linearGradient5910);stroke-width:1px;stroke-linecap:butt;stroke-linejoin:round;stroke-opacity:1" id="path4918" d="M 10.996965,0.5000698 C 5.9220637,0.53893325 3.6722597,3.6764994 3.5452127,6.5359294 L 0.51522327,6.5359294 L 5.9613573,11.492991 L 11.898015,6.5359294 L 8.6835349,6.5366354 C 8.6650923,3.7614431 11.486759,1.9635978 13.599153,1.8215023 C 18.498373,1.4919439 16.817182,4.386812 16.889204,5.917943 C 17.104407,3.9424625 15.368817,0.46659025 10.996965,0.5000698 z"/><path style="fill:none;fill-rule:evenodd;stroke:#2e3436;stroke-width:1px;stroke-linecap:round;stroke-linejoin:miter;stroke-opacity:1" id="path5930" d="M 16.5,11.5 L 11.624502,11.5"/><path style="fill:none;fill-rule:evenodd;stroke:#2e3436;stroke-width:.99999994px;stroke-linecap:round;stroke-linejoin:miter;stroke-opacity:1" id="path5932" d="M 9.5,12.5 L 6.5000001,15.5"/><path style="opacity:.33152173;fill:none;fill-rule:evenodd;stroke:#fff;stroke-width:1px;stroke-linecap:butt;stroke-linejoin:miter;stroke-opacity:1" id="path5970" d="M 10.954645,1.6453113 C 6.7342059,1.2891223 4.4100089,4.2881763 4.4688155,7.4596143 L 3.0897691,7.503662 L 5.9779175,10.162717 L 9.2341975,7.5477098 L 7.5124996,7.5478562 C 7.4830964,5.9034069 8.2048154,2.7168471 10.954645,1.6453113 z"/></g></svg>