<svg xmlns="http://www.w3.org/2000/svg" xmlns:cc="http://web.resource.org/cc/" xmlns:svg="http://www.w3.org/2000/svg" xmlns:xlink="http://www.w3.org/1999/xlink" id="svg4908" width="32" height="32" version="1.0"><defs id="defs4910"><linearGradient id="linearGradient6016"><stop style="stop-color:#2e3436;stop-opacity:1" id="stop6018" offset="0"/><stop style="stop-color:#2e3436;stop-opacity:0" id="stop6020" offset="1"/></linearGradient><linearGradient id="linearGradient6006"><stop style="stop-color:#000;stop-opacity:1" id="stop6008" offset="0"/><stop style="stop-color:#000;stop-opacity:0" id="stop6010" offset="1"/></linearGradient><linearGradient id="linearGradient5996"><stop style="stop-color:#f8f8f8;stop-opacity:1" id="stop5998" offset="0"/><stop style="stop-color:#e3e3df;stop-opacity:1" id="stop6000" offset="1"/></linearGradient><linearGradient id="linearGradient5904"><stop style="stop-color:#458805;stop-opacity:1" id="stop5906" offset="0"/><stop style="stop-color:#4e9a06;stop-opacity:0" id="stop5908" offset="1"/></linearGradient><linearGradient id="linearGradient4927"><stop style="stop-color:#73d216;stop-opacity:1" id="stop4929" offset="0"/><stop style="stop-color:#73d216;stop-opacity:0" id="stop4931" offset="1"/></linearGradient><linearGradient id="linearGradient4933" x1="6.025" x2="9.106" y1="1.37" y2=".255" gradientTransform="matrix(1.9765308,0,0,1.9544814,0.4904153,0.2105017)" gradientUnits="userSpaceOnUse" xlink:href="#linearGradient4927"/><linearGradient id="linearGradient5910" x1="6.39" x2="9.143" y1="2.97" y2=".851" gradientTransform="matrix(1.9765308,0,0,1.9544814,0.4904153,0.2105017)" gradientUnits="userSpaceOnUse" xlink:href="#linearGradient5904"/><radialGradient id="radialGradient6002" cx="7.644" cy="9.234" r="4.842" fx="7.644" fy="9.234" gradientTransform="matrix(1.1433172,-5.5272048e-4,5.1252719e-4,0.8640061,-0.3464548,1.1361432)" gradientUnits="userSpaceOnUse" xlink:href="#linearGradient5996"/><linearGradient id="linearGradient6012" x1="7.625" x2="11.621" y1="7.262" y2="11.846" gradientUnits="userSpaceOnUse" xlink:href="#linearGradient6006"/><radialGradient id="radialGradient6022" cx="10.028" cy="20.279" r="9.723" fx="10.028" fy="20.279" gradientTransform="matrix(0.9258714,-1.5361435e-2,1.5723917e-3,0.1459351,0.7114489,16.780677)" gradientUnits="userSpaceOnUse" xlink:href="#linearGradient6016"/><radialGradient id="radialGradient5922" cx="-2.494" cy="9.351" r="11.403" fx="-2.494" fy="9.351" gradientTransform="matrix(0.8098215,0,0,1.0747107,-0.4742643,-0.6907958)" gradientUnits="userSpaceOnUse" xlink:href="#linearGradient5996"/></defs><metadata id="metadata4913"/><g id="layer1"><path style="opacity:.64673911;fill:url(#radialGradient6022);fill-opacity:1;stroke:none;stroke-width:1;stroke-linecap:round;stroke-linejoin:round;stroke-miterlimit:0;stroke-dasharray:none;stroke-dashoffset:0;stroke-opacity:1" id="path6014" d="M 20.01996 19.436737 A 9.7227182 1.7235727 0 1 1 0.57452393,19.436737 A 9.7227182 1.7235727 0 1 1 20.01996 19.436737 z" transform="matrix(1.4399265,0,0,1.4504754,1.1727277,1.3074906)"/><path style="opacity:1;fill:#ad7fa8;fill-opacity:1;stroke:#4d2c55;stroke-width:.43459061;stroke-linecap:butt;stroke-linejoin:miter;stroke-miterlimit:0;stroke-dasharray:none;stroke-dashoffset:0;stroke-opacity:1" id="path4916" d="M 12.933053 9.5971832 A 6.084269 6.084269 0 1 1 0.7645154,9.5971832 A 6.084269 6.084269 0 1 1 12.933053 9.5971832 z" transform="matrix(2.3010159,0,0,2.301016,-0.2591622,-5.5832716)"/><path style="opacity:1;fill:url(#radialGradient5922);fill-opacity:1;stroke:#5c3566;stroke-width:.99289674;stroke-linecap:round;stroke-linejoin:round;stroke-miterlimit:0;stroke-dasharray:none;stroke-dashoffset:0;stroke-opacity:1" id="path4945" d="M 5.5 6.5 A 10.90625 10.9375 0 1 1 -16.3125,6.5 A 10.90625 10.9375 0 1 1 5.5 6.5 z" transform="matrix(1.008596,0,0,1.0057143,20.952722,9.9628572)"/><path style="opacity:1;fill:none;fill-opacity:1;stroke:#2e3436;stroke-width:1.0854553;stroke-linecap:butt;stroke-linejoin:round;stroke-miterlimit:0;stroke-dasharray:none;stroke-dashoffset:0;stroke-opacity:1" id="path5928" d="M 9.4927335 9.1034336 A 1.7520146 1.5131035 0 1 1 5.9887042,9.1034336 A 1.7520146 1.5131035 0 1 1 9.4927335 9.1034336 z" transform="matrix(0.8561572,0,0,0.99134,8.3727278,6.9754021)"/><path style="opacity:.25;fill:none;fill-opacity:1;stroke:#fff;stroke-width:.46802065;stroke-linecap:butt;stroke-linejoin:miter;stroke-miterlimit:0;stroke-dasharray:none;stroke-dashoffset:0;stroke-opacity:1" id="path5992" d="M 12.933053 9.5971832 A 6.084269 6.084269 0 1 1 0.7645154,9.5971832 A 6.084269 6.084269 0 1 1 12.933053 9.5971832 z" transform="matrix(2.1366576,0,0,2.1366576,0.8664923,-4.0058948)"/><path style="opacity:.10869565;fill:none;fill-opacity:1;stroke:url(#linearGradient6012);stroke-width:.63687932;stroke-linecap:round;stroke-linejoin:round;stroke-miterlimit:0;stroke-dasharray:none;stroke-dashoffset:0;stroke-opacity:1" id="path6004" d="M 17.40625 10.8125 A 6.65625 6.09375 0 1 1 4.09375,10.8125 A 6.65625 6.09375 0 1 1 17.40625 10.8125 z" transform="matrix(1.5023474,0,0,1.6410256,-0.6502348,-1.2435898)"/><path style="fill:url(#linearGradient4933);fill-opacity:1;fill-rule:evenodd;stroke:url(#linearGradient5910);stroke-width:1px;stroke-linecap:butt;stroke-linejoin:round;stroke-opacity:1" id="path4918" d="M 16.179129,1.1877424 C 9.071996,1.2416313 5.9212636,5.592247 5.743341,9.5571933 L 1.5,9.5571933 L 9.0020246,16.43076 L 17.441002,9.5571933 L 12.939292,9.5581722 C 12.913464,5.7100317 16.865059,3.2171013 19.823356,3.0200687 C 26.684457,2.563096 24.330037,6.5771815 24.4309,8.7002802 C 24.73228,5.9610371 22.301678,1.1413189 16.179129,1.1877424 z"/><path style="fill:none;fill-rule:evenodd;stroke:#2e3436;stroke-width:2.00000024;stroke-linecap:round;stroke-linejoin:miter;stroke-miterlimit:4;stroke-dasharray:none;stroke-opacity:1" id="path5930" d="M 22.115313,16 L 16.968966,16"/><path style="fill:none;fill-rule:evenodd;stroke:#2e3436;stroke-width:1px;stroke-linecap:round;stroke-linejoin:miter;stroke-opacity:1" id="path5932" d="M 13.500001,17.500001 L 9.5000004,21.500001"/><path style="opacity:.33152173;fill:none;fill-rule:evenodd;stroke:#fff;stroke-width:1.00000012px;stroke-linecap:butt;stroke-linejoin:miter;stroke-opacity:1" id="path5970" d="M 17,2.7754676 C 10.248077,1.3476599 6.5143835,6.1634716 6.604109,10.529077 L 4.1249998,10.58971 L 9.0316533,15.125 L 14.687491,10.587844 L 11.873074,10.588045 C 11.828211,8.3243979 12.804389,4.2504773 17,2.7754676 z"/></g></svg>